<?xml version="1.0" encoding="UTF-8"?>
<svg version="1.1" xmlns="http://www.w3.org/2000/svg" width="512" height="512">
<path d="M0 0 C0.83454208 -0.0049649 1.66908417 -0.00992981 2.52891541 -0.01504517 C5.29386213 -0.0296657 8.05875141 -0.03647015 10.82373047 -0.04199219 C12.74844362 -0.04774564 14.67315675 -0.05350335 16.59786987 -0.05926514 C20.6380032 -0.06977613 24.67811664 -0.07561753 28.71826172 -0.07910156 C33.87962325 -0.08457329 39.04071925 -0.1085726 44.20199776 -0.13707352 C48.18100738 -0.15576011 52.15995397 -0.16090879 56.13900375 -0.16243744 C58.04068318 -0.1654531 59.94236179 -0.17344472 61.84399796 -0.18662262 C64.51468906 -0.20380217 67.18474382 -0.20177356 69.85546875 -0.1953125 C70.63191238 -0.20452728 71.40835602 -0.21374207 72.20832825 -0.22323608 C82.55811852 -0.14535193 90.0939417 3.76952469 97.50732422 10.75488281 C104.45662301 18.13960133 106.41840681 26.29968992 106.28857422 36.25854492 C105.88201233 45.57521997 102.30606688 53.47040535 95.81591797 60.16113281 C90.761659 64.32613258 87.41267384 66.0616735 80.81591797 67.16113281 C81.14591797 75.41113281 81.47591797 83.66113281 81.81591797 92.16113281 C86.98248047 93.55332031 86.98248047 93.55332031 92.25341797 94.97363281 C123.59412599 103.89749502 151.91849132 120.06761323 175.33740234 142.73388672 C176.87436206 144.21755028 178.43093562 145.67885558 179.98779297 147.14160156 C212.92395983 178.56022329 236.60261934 227.53227856 237.99291992 273.32861328 C238.01905401 274.81175937 238.03922402 276.29501958 238.05419922 277.77832031 C238.06403839 278.58447784 238.07387756 279.39063538 238.08401489 280.22122192 C238.48372934 321.53346817 232.29232851 370.61666362 203.81591797 403.16113281 C200.72896976 404.99661553 198.93183853 405.16320282 195.31591797 405.09863281 C190.97300795 403.93535334 189.36668103 402.87133363 186.81591797 399.16113281 C185.52728785 392.18583536 187.77548164 387.34732044 191.37841797 381.53613281 C192.305251 379.95232909 193.2283889 378.36635762 194.14794922 376.77832031 C194.60379395 375.99811523 195.05963867 375.21791016 195.52929688 374.4140625 C210.02506276 349.0313438 216.28107021 319.48082476 216.12841797 290.47363281 C216.12626282 289.73101196 216.12410767 288.98839111 216.12188721 288.2232666 C215.9288945 246.623855 201.52056872 204.62814354 173.81591797 173.16113281 C173.07470703 172.31035156 172.33349609 171.45957031 171.56982422 170.58300781 C169.35147102 168.07630715 167.09740372 165.61043362 164.81591797 163.16113281 C164.13142578 162.4225 163.44693359 161.68386719 162.74169922 160.92285156 C130.00335118 126.85318438 82.33206314 109.91468908 35.81591797 108.78613281 C-10.8742713 109.96443412 -53.79211008 126.58614506 -88.18408203 158.16113281 C-88.69922363 158.63099609 -89.21436523 159.10085937 -89.74511719 159.58496094 C-121.1743704 188.6027883 -142.52810896 233.59159717 -144.39990234 276.45019531 C-144.97364912 293.38694933 -145.19402329 310.60976699 -141.18408203 327.16113281 C-140.98540527 328.01739258 -140.78672852 328.87365234 -140.58203125 329.75585938 C-133.13972713 361.23095229 -118.49370129 389.68347066 -96.18408203 413.16113281 C-94.96880948 414.57185125 -93.75987599 415.98807 -92.55908203 417.41113281 C-89.07195905 421.39872252 -85.28773542 424.81792271 -81.18408203 428.16113281 C-80.23662109 428.93457031 -79.28916016 429.70800781 -78.31298828 430.50488281 C-40.59107388 460.69184039 7.9010139 474.19955025 55.82373047 469.65722656 C84.13247211 466.43608987 110.35247773 456.5152282 134.66748047 441.83691406 C138.34893192 439.87743184 139.99828863 439.65440993 143.94873047 440.43066406 C147.52184313 441.82851358 148.9302164 443.92008324 150.81591797 447.16113281 C151.6634429 451.00124577 151.45358052 454.10413782 149.37841797 457.54394531 C145.78698998 461.21201963 141.71569179 463.48405219 137.25341797 465.97363281 C136.32029785 466.49844238 135.38717773 467.02325195 134.42578125 467.56396484 C116.7622609 477.31131253 97.84075895 484.16278346 78.12841797 488.41113281 C77.42974609 488.56227539 76.73107422 488.71341797 76.01123047 488.86914062 C62.91581393 491.51088449 49.83866924 492.57417699 36.50341797 492.53613281 C35.77490631 492.53558899 35.04639465 492.53504517 34.29580688 492.53448486 C-20.96115029 492.34696719 -71.77875688 469.55377819 -110.62451172 430.72119141 C-124.92726343 416.13318538 -153.18408203 383.965686 -153.18408203 362.16113281 C-154.5580439 362.17112556 -154.5580439 362.17112556 -155.95976257 362.18132019 C-164.5965537 362.2414585 -173.2332744 362.2871211 -181.87022686 362.31656933 C-186.31046679 362.33221799 -190.75053355 362.35344159 -195.19067383 362.38745117 C-199.47654228 362.42007325 -203.76224427 362.43799185 -208.04822731 362.44576454 C-209.68248934 362.45130294 -211.31674238 362.46211816 -212.95093346 362.47832298 C-215.24198389 362.50013553 -217.53234857 362.5030982 -219.82348633 362.50170898 C-221.12698532 362.50837082 -222.43048431 362.51503265 -223.77348328 362.52189636 C-227.44332277 362.13371106 -229.28087369 361.39552059 -232.18408203 359.16113281 C-234.86313933 355.14254687 -234.88018897 351.8847156 -234.18408203 347.16113281 C-232.39014535 344.29083413 -231.20144927 342.66981643 -228.18408203 341.16113281 C-226.02929273 341.06931199 -223.87158485 341.04362819 -221.71484375 341.04760742 C-220.71954147 341.04738838 -220.71954147 341.04738838 -219.70413208 341.04716492 C-217.5073115 341.0478625 -215.31057533 341.05564767 -213.11376953 341.06347656 C-211.59205166 341.06534129 -210.07033319 341.06676494 -208.5486145 341.06776428 C-204.54057156 341.07158515 -200.53256477 341.08141177 -196.52453613 341.09246826 C-192.43579599 341.10269163 -188.34705002 341.10726389 -184.25830078 341.11230469 C-176.2335446 341.12303441 -168.20881781 341.14010568 -160.18408203 341.16113281 C-160.38963211 340.35973373 -160.59518219 339.55833466 -160.80696106 338.73265076 C-161.07683334 337.66934036 -161.34670563 336.60602997 -161.62475586 335.51049805 C-161.89218094 334.46159897 -162.15960602 333.41269989 -162.43513489 332.33201599 C-163.5375768 327.66451101 -164.23386838 322.97337982 -164.87158203 318.22363281 C-165.00113281 317.31806641 -165.13068359 316.4125 -165.26416016 315.47949219 C-165.84138624 311.3228536 -166.20946365 307.36145127 -166.18408203 303.16113281 C-166.78685471 303.17223587 -167.38962738 303.18333893 -168.01066589 303.19477844 C-174.28845389 303.30545838 -180.56596446 303.38083585 -186.84448242 303.43579102 C-189.18704487 303.46092407 -191.52952899 303.49503589 -193.87182617 303.53833008 C-197.24043102 303.59903209 -200.60799852 303.62735532 -203.97705078 303.64941406 C-205.54606392 303.6881237 -205.54606392 303.6881237 -207.14677429 303.72761536 C-214.42665345 303.73041892 -214.42665345 303.73041892 -218.34301758 300.78686523 C-220.33214743 297.94996144 -220.86264025 296.58885878 -220.80908203 293.16113281 C-220.82197266 292.33613281 -220.83486328 291.51113281 -220.84814453 290.66113281 C-219.83386797 286.84267987 -218.35160408 285.54185404 -215.18408203 283.16113281 C-211.44427477 282.46436948 -207.76976701 282.57928021 -203.97705078 282.67285156 C-202.35625359 282.68346367 -202.35625359 282.68346367 -200.70271301 282.69429016 C-197.25829259 282.72223435 -193.81550948 282.78497648 -190.37158203 282.84863281 C-188.03371491 282.87371549 -185.69582227 282.8965287 -183.35791016 282.91699219 C-177.63274402 282.97206105 -171.90853001 283.05568862 -166.18408203 283.16113281 C-166.19128769 282.35973373 -166.19849335 281.55833466 -166.20591736 280.73265076 C-166.21152176 279.66934036 -166.21712616 278.60602997 -166.22290039 277.51049805 C-166.23010605 276.46159897 -166.23731171 275.41269989 -166.24473572 274.33201599 C-166.15347323 269.56095099 -165.48902648 264.93038531 -164.74658203 260.22363281 C-164.54452148 258.8652832 -164.54452148 258.8652832 -164.33837891 257.47949219 C-163.71614998 253.34849915 -163.01094538 249.25630118 -162.18408203 245.16113281 C-163.50095505 245.17001526 -164.81782806 245.17889771 -166.17460632 245.18804932 C-178.57871141 245.26910021 -190.98276285 245.3290816 -203.38707256 245.3683815 C-209.76442683 245.38926515 -216.1415675 245.41759764 -222.51879883 245.46289062 C-228.67202164 245.50631965 -234.82503886 245.53026406 -240.97840309 245.54064178 C-243.32718963 245.54803837 -245.67596479 245.56248195 -248.02466393 245.58405304 C-251.31201966 245.613047 -254.59852351 245.61709037 -257.88598633 245.61523438 C-258.85918823 245.62961548 -259.83239014 245.64399658 -260.83508301 245.65881348 C-265.15108413 245.63240837 -267.52515861 245.56818547 -271.26521301 243.25775146 C-274.48159185 239.74343141 -274.57324425 237.04731658 -274.54345703 232.42285156 C-273.97351337 228.83592352 -271.98182155 227.29274387 -269.18408203 225.16113281 C-266.79944424 223.96881392 -265.35287371 224.0379015 -262.69161987 224.0408783 C-261.74648529 224.03950363 -260.80135071 224.03812897 -259.82757568 224.03671265 C-258.26743744 224.04210556 -258.26743744 224.04210556 -256.67578125 224.04760742 C-255.58308929 224.0474614 -254.49039734 224.04731537 -253.36459351 224.04716492 C-249.73929891 224.04786368 -246.11405519 224.05565439 -242.48876953 224.06347656 C-239.98056059 224.06534087 -237.47235128 224.06676471 -234.96414185 224.06776428 C-229.02848404 224.0711972 -223.09284266 224.07908517 -217.1571933 224.08911377 C-209.73777406 224.10137776 -202.31835256 224.10675652 -194.89892578 224.11230469 C-181.66063519 224.12304022 -168.42235977 224.1399241 -155.18408203 224.16113281 C-154.95937729 222.74194298 -154.95937729 222.74194298 -154.73013306 221.29408264 C-154.26160771 218.60593383 -153.6828938 216.56233605 -152.58251953 214.09472656 C-152.25638672 213.36060547 -151.93025391 212.62648437 -151.59423828 211.87011719 C-151.25263672 211.12052734 -150.91103516 210.3709375 -150.55908203 209.59863281 C-150.24068359 208.87611328 -149.92228516 208.15359375 -149.59423828 207.40917969 C-146.47770683 200.4721898 -142.83840311 193.82531388 -139.18408203 187.16113281 C-140.25070824 187.17112556 -140.25070824 187.17112556 -141.33888245 187.18132019 C-148.06193695 187.24159694 -154.7849153 187.28719099 -161.50817966 187.31656933 C-164.96414849 187.33218118 -168.41989279 187.35333637 -171.87573242 187.38745117 C-175.85478975 187.42648221 -179.83375826 187.44087913 -183.81298828 187.45410156 C-185.66181358 187.47732735 -185.66181358 187.47732735 -187.54798889 187.50102234 C-193.82788506 187.50224833 -198.72602795 187.42736614 -204.18408203 184.16113281 C-206.86313933 180.14254687 -206.88018897 176.8847156 -206.18408203 172.16113281 C-204.39014535 169.29083413 -203.20144927 167.66981643 -200.18408203 166.16113281 C-197.83135014 166.09650562 -195.4766999 166.09889704 -193.12329102 166.13037109 C-191.61584377 166.14647918 -190.1083921 166.16217621 -188.60093689 166.17752075 C-187.79965803 166.18705906 -186.99837917 166.19659737 -186.17281914 166.20642471 C-181.03493496 166.25799765 -175.89672184 166.25220843 -170.75862026 166.25778389 C-166.24629608 166.26598674 -161.73570094 166.29362624 -157.22387695 166.36328125 C-152.85711321 166.42957415 -148.4931003 166.44170295 -144.12593269 166.41802597 C-142.46696896 166.41863402 -140.80788854 166.43858049 -139.14941216 166.4787941 C-129.59077909 166.85585856 -129.59077909 166.85585856 -121.25283813 162.78799438 C-118.9790704 160.01466942 -117.0929666 157.19189918 -115.18408203 154.16113281 C-87.34256419 122.63403739 -50.57633334 102.5849396 -10.18408203 92.16113281 C-10.18408203 84.24113281 -10.18408203 76.32113281 -10.18408203 68.16113281 C-11.99908203 67.35675781 -13.81408203 66.55238281 -15.68408203 65.72363281 C-24.79848591 61.13418652 -30.01183403 55.07331118 -33.49267578 45.52050781 C-36.17782494 36.35762594 -35.65568303 27.47092694 -31.55908203 18.78613281 C-24.69303754 6.43701487 -14.15329287 0.0200629 0 0 Z M-11.99658203 27.03613281 C-13.89704624 30.4369635 -14.50001379 33.26925908 -13.85205078 37.14941406 C-12.4431511 41.97603167 -10.26800442 44.6246659 -5.96636963 47.14648438 C0.40063791 49.46841337 7.53620042 48.82633626 14.22998047 48.75488281 C15.93053096 48.75316957 17.63108409 48.75323956 19.33163452 48.75500488 C22.8839467 48.75335681 26.43562385 48.73475063 29.98779297 48.703125 C34.5317467 48.6633882 39.07487246 48.65908998 43.61896706 48.66658783 C47.12610404 48.66966243 50.63305626 48.65752063 54.14014816 48.64045715 C55.81541154 48.63344786 57.49069584 48.6303001 59.16597366 48.63114929 C61.50881826 48.62934386 63.85068481 48.60790181 66.19335938 48.58105469 C67.22215965 48.58545059 67.22215965 48.58545059 68.27174377 48.5899353 C74.38539323 48.48228533 78.22371148 46.61488656 82.69091797 42.53613281 C85.409065 38.21907577 85.77844086 35.13416773 84.81591797 30.16113281 C82.56368063 25.65665814 80.32765622 23.32054989 75.81591797 21.16113281 C73.131312 20.87187042 70.6810872 20.74033089 67.99975586 20.75708008 C66.84268883 20.7467852 66.84268883 20.7467852 65.6622467 20.73628235 C63.12083352 20.71803106 60.58003867 20.72184938 58.03857422 20.72753906 C56.26647237 20.72297638 54.49437229 20.71767054 52.72227478 20.71165466 C49.01098434 20.7027268 45.29990913 20.70514287 41.58862305 20.71508789 C36.83938813 20.72657593 32.09089691 20.70636722 27.34175968 20.67717075 C23.68280847 20.65879888 20.02403514 20.65910319 16.36504936 20.66480827 C14.61440424 20.66496137 12.86374697 20.65892628 11.11314583 20.6465168 C8.66211822 20.63158991 6.21246021 20.64229523 3.76147461 20.65942383 C2.68352631 20.64492188 2.68352631 20.64492188 1.58380127 20.63012695 C-4.3434521 20.71658995 -7.93832615 22.83793707 -11.99658203 27.03613281 Z M11.81591797 69.16113281 C11.81591797 75.76113281 11.81591797 82.36113281 11.81591797 89.16113281 C14.12591797 88.99613281 16.43591797 88.83113281 18.81591797 88.66113281 C32.55383004 87.76997913 46.09760063 88.181253 59.81591797 89.16113281 C59.81591797 82.56113281 59.81591797 75.96113281 59.81591797 69.16113281 C43.97591797 69.16113281 28.13591797 69.16113281 11.81591797 69.16113281 Z " fill="#000000" transform="translate(274.18408203125,9.8388671875)"/>
<path d="M0 0 C0.82757813 0.70640625 1.65515625 1.4128125 2.5078125 2.140625 C35.27780257 30.69879817 51.89955096 70.15391914 55 113 C55.2378478 116.7084841 55.2226512 120.29072572 55 124 C54.9383667 125.06710205 54.9383667 125.06710205 54.87548828 126.15576172 C52.48954047 164.15560148 38.28453342 198.3169155 12 226 C11.52578613 226.5067627 11.05157227 227.01352539 10.56298828 227.53564453 C2.74283694 235.85064725 -5.39972441 242.82483571 -15 249 C-15.64420898 249.41878418 -16.28841797 249.83756836 -16.95214844 250.26904297 C-42.0863343 266.40404172 -70.63873117 274.46120425 -100.4375 274.375 C-101.18156097 274.37412384 -101.92562195 274.37324768 -102.69223022 274.37234497 C-145.65504964 274.20623901 -184.14670966 256.50234782 -214.32666016 226.16088867 C-242.69541792 196.78693871 -257.40886576 157.16863518 -257.06469727 116.48950195 C-255.934431 72.99770889 -238.1283894 34.79550905 -207.359375 4.390625 C-150.88584309 -48.78036118 -58.49521134 -51.38831651 0 0 Z M-203.26000977 30.55664062 C-225.21961058 55.78799023 -237.73870616 90.51876095 -236 124 C-233.54958363 158.42000622 -220.72656861 187.85816239 -197 213 C-196.32710937 213.73734375 -195.65421875 214.4746875 -194.9609375 215.234375 C-178.27898614 232.85351464 -156.13298935 243.63645095 -133 250 C-132.30825684 250.19207031 -131.61651367 250.38414062 -130.90380859 250.58203125 C-111.70883949 255.60734417 -88.10302857 255.30417192 -69 250 C-68.19868652 249.77957031 -67.39737305 249.55914062 -66.57177734 249.33203125 C-43.4119331 242.73363583 -24.48223183 231.49813269 -7 215 C-6.26265625 214.32710937 -5.5253125 213.65421875 -4.765625 212.9609375 C19.32136855 190.15516702 32.48228367 156.77318709 34 124 C34.04125 123.24332031 34.0825 122.48664063 34.125 121.70703125 C35.12658528 85.33696583 20.18703341 51.0300923 -4.35571289 24.72070312 C-28.95839713 -0.96779143 -63.08757002 -15.38338948 -98.50756836 -16.35351562 C-138.82080625 -16.7010095 -176.34844522 0.77368924 -203.26000977 30.55664062 Z " fill="#000000" transform="translate(411,181)"/>
<path d="M0 0 C3.20613573 1.89993229 5.39902918 3.33474007 6.69921875 6.9375 C7.54601592 11.74512262 6.73860438 13.90156165 4 18 C2.45950594 19.61950446 0.86019166 21.18410319 -0.77856445 22.70410156 C-1.75580551 23.6187352 -2.73278857 24.53364455 -3.70954895 25.4487915 C-4.22374704 25.9271772 -4.73794514 26.4055629 -5.26772499 26.89844513 C-8.01093078 29.4639181 -10.71462061 32.07060518 -13.42382812 34.671875 C-16.86019002 37.97046531 -20.30659576 41.2546022 -23.80786133 44.484375 C-26.64821717 47.1065635 -29.43827419 49.774128 -32.20183372 52.47704315 C-33.25568434 53.49110734 -34.32624712 54.48812492 -35.4137516 55.46601105 C-41.46529261 60.77895563 -41.46529261 60.77895563 -44.21139145 68.07423401 C-44.09787371 71.83163184 -43.48777944 75.39397709 -42.69841003 79.06170654 C-41.3734226 86.53323342 -43.43301719 93.18560172 -47.6875 99.375 C-53.6828095 106.49535523 -60.92313763 111.4112131 -70.265625 112.31640625 C-80.49830998 112.65971062 -87.79445916 110.85984521 -95.8125 104.4375 C-102.21457845 98.33003047 -105.50116607 90.58747754 -106.0949707 81.79272461 C-106 79 -106 79 -105.18847656 76.06665039 C-104.21672739 72.50145598 -103.75686428 69.69859424 -104 66 C-106.86748979 61.30036846 -110.71450227 57.90002478 -114.8125 54.3125 C-115.87647065 53.33248012 -116.93705996 52.34877583 -117.99414062 51.36132812 C-119.92205558 49.56241977 -121.86637655 47.79572097 -123.83520508 46.0402832 C-126.76842902 43.27576843 -127.20361562 41.60956573 -127.375 37.6875 C-127.32240402 34.0583776 -127.08637678 33.12563895 -124.9375 30 C-121.40055558 27.59186763 -119.27436594 27 -115 27 C-110.34799656 28.89699011 -107.48215564 31.24907834 -104.13671875 34.95703125 C-102.80543945 36.37725586 -102.80543945 36.37725586 -101.44726562 37.82617188 C-100.05826638 39.32052141 -98.67979856 40.82113194 -97.3215332 42.34350586 C-92.36333133 48.4130782 -92.36333133 48.4130782 -85.50244141 51.19775391 C-83.20092035 50.66538716 -81.17172894 49.91879789 -79 49 C-76.25 48.734375 -76.25 48.734375 -74 48.75 C-73.2575 48.74484375 -72.515 48.7396875 -71.75 48.734375 C-69 49 -69 49 -67.16548157 49.83093262 C-64.54753367 50.8663535 -62.82363373 51.2205094 -60 51 C-55.56490283 48.15675359 -52.12902448 44.3591921 -48.54296875 40.546875 C-47.46940217 39.44768999 -46.39321073 38.3510631 -45.31452942 37.25689697 C-42.48515972 34.37428343 -39.68950594 31.46111355 -36.90063477 28.53936768 C-33.50848166 24.9962669 -30.08187632 21.48655082 -26.65609455 17.97600174 C-23.99037969 15.24422566 -21.33176143 12.50671699 -18.69316101 9.74871826 C-17.73189189 8.75141532 -16.77061408 7.75412077 -15.80932617 6.75683594 C-14.97487473 5.88476501 -14.14042328 5.01269409 -13.28068542 4.11419678 C-9.04446087 0.18721403 -5.79840184 -0.69980712 0 0 Z M-82.75 74.375 C-84.51355753 76.66762479 -84.8679947 78.09588342 -85 81 C-83.85727877 84.48830691 -82.73075059 87.16099006 -80.3125 89.9375 C-76.87579652 91.51652592 -73.66625017 91.64141156 -70 91 C-66.24965836 88.96177085 -65.21272814 87.50869772 -63.5625 83.5625 C-62.9548255 79.71389481 -63.03571342 78.30357289 -65 75 C-67.32634095 71.89821207 -68.65530882 71.09400669 -72.4375 70.0625 C-77.20428369 69.97887222 -79.13542311 71.5349753 -82.75 74.375 Z " fill="#000000" transform="translate(384,219)"/>
<path d="M0 0 C3.11905047 2.57660691 4.7181368 4.1544104 6 8 C6.98035324 22.12085731 6.98035324 22.12085731 3 27 C-0.98267047 29.45087413 -3.04179152 30.1461674 -7.6875 29.4375 C-11.2331946 27.89880234 -12.73185296 27.10173954 -15 24 C-15.61954674 20.84521781 -15.60382511 17.76884234 -15.5625 14.5625 C-15.58634766 13.71623047 -15.61019531 12.86996094 -15.63476562 11.99804688 C-15.624293 7.54019761 -15.45535818 5.58870766 -12.65234375 1.96484375 C-8.19653412 -1.33599903 -5.30695587 -1.28098935 0 0 Z " fill="#000000" transform="translate(315,183)"/>
<path d="M0 0 C2.8100346 1.79363911 4.50940468 3.01880935 6 6 C6.17776132 8.9520035 6.27764035 11.85872598 6.3125 14.8125 C6.34150391 15.62009766 6.37050781 16.42769531 6.40039062 17.25976562 C6.44409359 21.36448237 6.34206816 23.45621743 4.10546875 27.01171875 C0.89197576 30.04635313 -1.45907917 30.40003739 -5.89453125 30.3515625 C-9.6972357 29.71660257 -11.40085863 27.78932244 -14 25 C-15.17686887 21.73170753 -15.16574425 18.51296248 -15.1875 15.0625 C-15.20167969 14.04285156 -15.21585937 13.02320313 -15.23046875 11.97265625 C-14.89254855 7.61405835 -13.8295087 4.90270065 -10.875 1.6875 C-7.13475263 -0.50786259 -4.24185572 -0.87407936 0 0 Z " fill="#000000" transform="translate(314,387)"/>
<path d="M0 0 C1.31613281 -0.02578125 2.63226563 -0.0515625 3.98828125 -0.078125 C8.86010633 0.35401154 11.4086738 1.75803609 14.5625 5.4375 C15.85424244 8.66685611 15.86557709 10.7800965 15.59765625 14.1875 C14.13257127 17.50752091 11.80037943 19.53217781 8.6875 21.25 C5.80026787 21.9147422 3.07582149 21.90785406 0.125 21.8125 C-0.61685547 21.82345703 -1.35871094 21.83441406 -2.12304688 21.84570312 C-7.07621317 21.77954329 -9.72503429 20.93386594 -13.3125 17.25 C-15.04881636 13.77736727 -14.91440402 10.03806987 -14.3125 6.25 C-9.93434021 0.7196929 -6.72911662 0.05131833 0 0 Z " fill="#000000" transform="translate(207.3125,288.75)"/>
<path d="M0 0 C2.875 1.6875 2.875 1.6875 4.875 4.6875 C5.61465025 9.28021203 5.48461194 12.71212089 3 16.6875 C-0.93221877 20.38841178 -4.78015084 19.97323038 -9.9375 20.0625 C-11.14889648 20.11857422 -11.14889648 20.11857422 -12.38476562 20.17578125 C-16.81561958 20.24110096 -18.55228579 20.14359147 -22.13671875 17.2890625 C-25.04083367 13.48917933 -25.586465 11.48673599 -25.125 6.6875 C-23.40651113 3.37781772 -22.21522076 1.23915545 -18.84765625 -0.46484375 C-12.914701 -2.31197616 -5.81269221 -2.32019227 0 0 Z " fill="#000000" transform="translate(422.125,290.3125)"/>
<path d="M0 0 C5.53846154 3.07692308 5.53846154 3.07692308 7 6 C7.42071592 9.05920574 7.48514117 11.9467746 7 15 C4.81840855 17.75569447 3.12822506 19.43588747 0 21 C-4.4188083 21.5098625 -6.50771901 21.29172207 -10.375 19 C-13.21444996 15.75491433 -13.95091395 14.11614982 -14.171875 9.92578125 C-13.82565506 6.04654417 -11.85773037 3.8883636 -9.25 1.1875 C-5.95322558 -0.55246428 -3.67943611 -0.44406988 0 0 Z " fill="#000000" transform="translate(449,425)"/>
<path d="M0 0 C2.79750031 2.18341487 3.75038246 3.67510688 4.40625 7.15625 C4.70150462 11.58506933 4.45078467 13.43058778 1.625 17 C-2.54369556 20.176149 -4.71721956 20.22594685 -9.80078125 19.5546875 C-12 19 -12 19 -14.5625 17 C-16.52558653 12.90312377 -16.81679831 9.46408581 -16 5 C-12.01229156 -1.60034501 -6.98748958 -1.79101718 0 0 Z " fill="#000000" transform="translate(16,352)"/>
</svg>
