<?xml version="1.0" encoding="UTF-8"?>
<svg version="1.1" xmlns="http://www.w3.org/2000/svg" width="100" height="100">
<path d="M0 0 C3.375 1.375 3.375 1.375 6 4 C7.07484705 7.29688663 7.61910018 10.55876713 8 14 C8.85464844 13.27296875 8.85464844 13.27296875 9.7265625 12.53125 C13.37257146 10.07551888 16.75725799 10.23660005 21 11 C23.93555578 12.31551877 24.8299948 13.39599376 27 16 C28.4949461 20.11321329 28.26538023 23.17263812 26.9375 27.3125 C23.85551574 31.58751043 20.36888123 32.64597899 15.375 33.9375 C11.82391425 35.0554344 10.34997894 36.18002528 8 39 C10.31 39.33 12.62 39.66 15 40 C15.33 39.01 15.66 38.02 16 37 C19.45540442 34.47489677 22.85070338 34.63602661 27 35 C31.14623807 36.79042098 33.17613802 38.87231236 35 43 C35.5931368 46.98248997 35.17424115 48.67640929 33.25 52.25 C30.08474576 56.11864407 30.08474576 56.11864407 27 57 C22.03908292 57.45099246 18.96510526 57.12402233 15 54 C15 53.34 15 52.68 15 52 C11.535 52.495 11.535 52.495 8 53 C10.97709233 56.64933898 12.80932027 58.2012532 17.5 59 C22.04623166 59.8334758 24.27776815 61.08679171 27 65 C27.95535163 67.7416896 28.30000961 70.10745449 28 73 C26.03190926 76.79560358 24.5566917 78.6288722 21 81 C18.87890625 81.30078125 18.87890625 81.30078125 16.5625 81.3125 C15.80066406 81.32925781 15.03882812 81.34601563 14.25390625 81.36328125 C11.4880081 80.91747791 10.09608095 79.80960064 8 78 C7.88785156 79.01320312 7.88785156 79.01320312 7.7734375 80.046875 C6.70508475 87.29491525 6.70508475 87.29491525 3.375 90.625 C-0.98501387 92.40130195 -3.31122104 92.5954005 -8 92 C-12.12361991 89.5796144 -13.38748593 87.37993686 -15 83 C-15.52207031 83.433125 -16.04414062 83.86625 -16.58203125 84.3125 C-21.88494417 88.32451118 -25.80058246 89.84788618 -32.48046875 89.46484375 C-36.75878714 88.67551059 -39.50611722 86.60943172 -42.4140625 83.4765625 C-44.1554555 81.85526557 -45.69476354 81.11643343 -47.875 80.1875 C-52.67148077 77.89967584 -55.59844515 74.80310969 -58 70 C-58.15378833 68.23143424 -58.27426937 66.45987948 -58.375 64.6875 C-58.69024155 60.34986293 -58.69024155 60.34986293 -60.5625 56.5 C-62.98070361 52.29442851 -62.53935644 47.72812461 -62 43 C-61.06553465 40.96855359 -60.06775224 38.96466413 -59 37 C-58.85272294 35.52450205 -58.75223416 34.04391629 -58.6875 32.5625 C-58.28252079 27.35939752 -55.8180085 24.40278742 -52 21 C-51.34 20.67 -50.68 20.34 -50 20 C-49.566875 19.071875 -49.13375 18.14375 -48.6875 17.1875 C-45.71177459 11.56668533 -41.6759344 9.68567175 -35.90625 7.7265625 C-33.81206985 7.01118184 -33.81206985 7.01118184 -31.5 5.3125 C-27.97901825 3.46398458 -24.901004 3.39317715 -21 4 C-18.63706998 5.15632746 -16.85016245 6.14983755 -15 8 C-14.401875 7.05125 -13.80375 6.1025 -13.1875 5.125 C-9.55030991 -0.07098584 -6.07080202 -0.87217571 0 0 Z M5 17 C5 17.66 5 18.32 5 19 C-1.60048406 21.51447012 -5.38541369 21.64583453 -12 19 C-12 22.63 -12 26.26 -12 30 C-9.74926172 29.93981983 -7.49927675 29.85098794 -5.25 29.75 C-3.99703125 29.70359375 -2.7440625 29.6571875 -1.453125 29.609375 C2.45630796 28.91947507 3.73385475 28.21792626 6 25 C6.47800058 22.8746151 6.47800058 22.8746151 6.25 20.75 C6.12625 18.89375 6.12625 18.89375 6 17 C5.67 17 5.34 17 5 17 Z M-12 38 C-11.67 39.32 -11.34 40.64 -11 42 C-10.01 41.34 -9.02 40.68 -8 40 C-9.32 39.34 -10.64 38.68 -12 38 Z M-12 50 C-11.67 51.32 -11.34 52.64 -11 54 C-10.01 53.01 -9.02 52.02 -8 51 C-9.32 50.67 -10.64 50.34 -12 50 Z M-12 62 C-12 65.63 -12 69.26 -12 73 C-10.35 72.34 -8.7 71.68 -7 71 C-4.6484375 70.98828125 -4.6484375 70.98828125 -2.375 71.3125 C-1.61960937 71.41175781 -0.86421875 71.51101562 -0.0859375 71.61328125 C2 72 2 72 5 73 C5.33 73.66 5.66 74.32 6 75 C6.0825 73.7625 6.165 72.525 6.25 71.25 C6.29640625 70.55390625 6.3428125 69.8578125 6.390625 69.140625 C5.80815783 65.94870489 4.60022697 64.90016586 2 63 C-1.49272252 62.30220618 -1.49272252 62.30220618 -5.25 62.25 C-7.14492188 62.16492188 -7.14492188 62.16492188 -9.078125 62.078125 C-10.04234375 62.05234375 -11.0065625 62.0265625 -12 62 Z " fill="#080808" transform="translate(63,4)"/>
<path d="M0 0 C2.375 0.5625 2.375 0.5625 4.375 3.5625 C4.63569641 6.12948608 4.63569641 6.12948608 4.6496582 9.23974609 C4.66395622 10.98703506 4.66395622 10.98703506 4.67854309 12.7696228 C4.67763168 14.02900665 4.67672028 15.2883905 4.67578125 16.5859375 C4.68006638 17.87940094 4.6843515 19.17286438 4.68876648 20.50552368 C4.69622727 23.24428401 4.69593899 25.98291545 4.69067383 28.72167969 C4.68488615 32.22444075 4.7017931 35.72667184 4.7250185 39.22934532 C4.74333273 42.57739795 4.73956971 45.92533508 4.73828125 49.2734375 C4.747491 50.52877289 4.75670074 51.78410828 4.76618958 53.07748413 C4.75996078 54.24864777 4.75373199 55.4198114 4.74731445 56.62646484 C4.74794388 57.65444183 4.7485733 58.68241882 4.7492218 59.74154663 C4.31086879 63.04593295 3.34603953 64.89296643 1.375 67.5625 C-2.3623856 70.0540904 -4.19831583 70.02043285 -8.625 69.5625 C-11.60856441 67.74641731 -13.24160986 66.62419578 -14.4375 63.3125 C-14.499375 62.735 -14.56125 62.1575 -14.625 61.5625 C-15.9553125 61.7171875 -15.9553125 61.7171875 -17.3125 61.875 C-20.625 61.5625 -20.625 61.5625 -23.5 59.4375 C-25.94650834 56.12751812 -26.09207789 54.57936987 -25.625 50.5625 C-24.96113281 50.52511719 -24.29726563 50.48773438 -23.61328125 50.44921875 C-16.60283607 49.99493205 -16.60283607 49.99493205 -10.625 46.5625 C-8.54118114 43.66003802 -7.27566851 41.07610995 -6.625 37.5625 C-8.275 37.5625 -9.925 37.5625 -11.625 37.5625 C-11.7178125 38.67625 -11.7178125 38.67625 -11.8125 39.8125 C-12.90441311 43.50820593 -14.34915631 44.59699378 -17.625 46.5625 C-21.58678018 47.2227967 -23.07674139 46.92800574 -26.4375 44.6875 C-29.4978011 41.71463608 -29.59611756 41.01739837 -29.875 36.625 C-29.83272751 34.03228757 -29.80841547 32.86175681 -28.4375 30.625 C-26.20001375 29.31337013 -24.18187669 28.90802388 -21.625 28.5625 C-21.625 27.5725 -21.625 26.5825 -21.625 25.5625 C-22.945 25.2325 -24.265 24.9025 -25.625 24.5625 C-25.75 21.6875 -25.75 21.6875 -25.625 18.5625 C-24.965 17.9025 -24.305 17.2425 -23.625 16.5625 C-21.01656684 16.82334332 -19.73609767 17.4729051 -17.6875 19.125 C-15.15666529 20.8889151 -13.64462166 20.81413514 -10.625 20.5625 C-10.625 19.5725 -10.625 18.5825 -10.625 17.5625 C-11.40875 17.27375 -12.1925 16.985 -13 16.6875 C-15.625 15.5625 -15.625 15.5625 -17.625 13.5625 C-17.97935046 10.79856641 -17.94390064 9.1604387 -16.625 6.6875 C-13.29594132 4.81490449 -10.30575232 5.89875778 -6.625 6.5625 C-6.068125 5.5725 -5.51125 4.5825 -4.9375 3.5625 C-2.625 0.5625 -2.625 0.5625 0 0 Z " fill="#040404" transform="translate(38.625,15.4375)"/>
<path d="M0 0 C2.92612619 1.82205543 5.43486248 3.86972495 7 7 C7.11668899 8.89740503 7.16970174 10.79885845 7.19287109 12.69970703 C7.20893402 13.89500031 7.22499695 15.09029358 7.24154663 16.32180786 C7.28597888 21.80568273 7.32752366 27.28942525 7.35009766 32.7734375 C7.36340168 35.66406144 7.39118545 38.5539735 7.43212891 41.44433594 C7.48166532 44.9415784 7.50624474 48.43817842 7.51332474 51.93575668 C7.52323711 53.90549234 7.55743524 55.87505797 7.59213257 57.84451294 C7.575112 65.09581428 7.08967644 70.52880205 2 76 C-1.80607016 78.70653878 -5.26423019 79.59253626 -9.96875 79.4296875 C-13.60393271 78.66070654 -16.34878968 76.53594031 -19 74 C-19.495 73.01 -19.495 73.01 -20 72 C-21.0725 71.566875 -22.145 71.13375 -23.25 70.6875 C-27.15692783 69.02685511 -29.49731865 67.57525907 -32 64 C-32.70741277 60.70302777 -33.13994333 57.43461959 -33.53125 54.0859375 C-34.06038825 50.60244401 -35.40637215 48.11481808 -37 45 C-37.57802624 41.19719577 -37.60615 38.00146522 -35.5625 34.625 C-33.84238542 31.7352075 -33.78557765 30.2991409 -33.625 27 C-33.34335631 23.14320585 -33.12338695 22.16340433 -30.6875 18.9375 C-28.30359612 17.21887162 -26.88237299 16.32026367 -24 16 C-24.1546875 14.9171875 -24.1546875 14.9171875 -24.3125 13.8125 C-24 11 -24 11 -22 8.1875 C-17.96985387 5.24885178 -15.88409122 5.58609396 -11 6 C-10.731875 5.38125 -10.46375 4.7625 -10.1875 4.125 C-7.7408804 -0.2531614 -4.63243187 -0.63582398 0 0 Z M-7.3125 8 C-7.869375 8.99 -8.42625 9.98 -9 11 C-10.258125 10.773125 -11.51625 10.54625 -12.8125 10.3125 C-16.05403969 9.87033264 -16.05403969 9.87033264 -19 11.125 C-20.34113399 13.63962623 -20.42180059 15.18799606 -20 18 C-18.0658223 20.70784878 -16.23060419 21.44299928 -13 22 C-13 22.99 -13 23.98 -13 25 C-17.57766491 24.56814482 -19.84868803 24.30137444 -23 21 C-25.13745922 21.25146579 -26.45925779 21.45925779 -28 23 C-28.04080783 24.99958364 -28.04254356 27.00045254 -28 29 C-26.68 29.33 -25.36 29.66 -24 30 C-24 30.99 -24 31.98 -24 33 C-25.423125 33.433125 -25.423125 33.433125 -26.875 33.875 C-30.05211578 34.76825109 -30.05211578 34.76825109 -32 37 C-32.57863055 42.81451891 -32.57863055 42.81451891 -30.125 47.9375 C-27.60831351 50.38016629 -26.66691781 50.92589802 -23.1875 51.3125 C-19.20480282 50.92203949 -17.73032251 49.88634094 -15 47 C-14.12056596 44.36539052 -14.12056596 44.36539052 -14 42 C-12.35 42 -10.7 42 -9 42 C-11.00088637 47.20230457 -12.75375791 51.37687895 -18 54 C-19.70363822 54.22622081 -21.41328701 54.40888473 -23.125 54.5625 C-24.03507812 54.64628906 -24.94515625 54.73007813 -25.8828125 54.81640625 C-26.58148438 54.87699219 -27.28015625 54.93757813 -28 55 C-28.46707789 59.01686987 -28.32150834 60.56501812 -25.875 63.875 C-22.56501812 66.32150834 -21.01686987 66.46707789 -17 66 C-16.7525 66.763125 -16.505 67.52625 -16.25 68.3125 C-14.82439982 71.37754038 -13.99679976 72.46110282 -11 74 C-6.79163084 74.53561062 -4.74193428 74.46774118 -1.125 72.1875 C2.20691924 68.75758314 2.12834349 65.87381439 2.14526367 61.29101562 C2.15164352 60.11970093 2.15802338 58.94838623 2.16459656 57.74157715 C2.16570938 56.47591919 2.1668222 55.21026123 2.16796875 53.90625 C2.17129715 52.60804321 2.17462555 51.30983643 2.17805481 49.97229004 C2.18403993 47.22517058 2.18589528 44.47808255 2.18530273 41.73095703 C2.185201 38.2101857 2.19886756 34.68961552 2.21607494 31.16889191 C2.22986101 27.81050803 2.22928335 24.45216184 2.23046875 21.09375 C2.23765427 19.82809204 2.24483978 18.56243408 2.25224304 17.25842285 C2.2476281 15.50145081 2.2476281 15.50145081 2.24291992 13.70898438 C2.24434494 12.67656616 2.24576996 11.64414795 2.24723816 10.58044434 C2.18234114 7.76129617 2.18234114 7.76129617 0 5 C-4.06510199 4.03721269 -4.72607512 4.644638 -7.3125 8 Z " fill="#EEEEEE" transform="translate(41,11)"/>
<path d="M0 0 C2.4375 1.5625 2.4375 1.5625 4 4 C4.55437355 7.88061483 4.61242231 10.03033134 2.5 13.375 C-0.40214054 15.26139135 -2.56335573 15.23028941 -5.94921875 15.453125 C-8.64526108 16.17206962 -9.41319352 17.39565635 -11.125 19.5625 C-13.62799583 22.4347903 -14.6839419 22.95897156 -18.55078125 23.4609375 C-22.05773048 23.43979007 -25.50694298 23.30521857 -29 23 C-29.5625 21.0625 -29.5625 21.0625 -30 19 C-27.7391947 16.7391947 -22.26062543 17.67363733 -19.19921875 17.57421875 C-15.43449975 16.89849995 -14.21864561 16.07816934 -12 13 C-11.45782866 10.78713676 -11.45782866 10.78713676 -11.5 8.5 C-11.26320161 5.37529082 -11.09668214 4.1524603 -9.375 1.4375 C-6.02280766 -0.59145852 -3.84748569 -0.54964081 0 0 Z " fill="#F1F1F1" transform="translate(83,18)"/>
<path d="M0 0 C6.67486126 0.0067491 6.67486126 0.0067491 9.54296875 2.02734375 C10.63049653 3.29052923 11.69134086 4.57723687 12.72265625 5.88671875 C15.30071078 8.40382637 17.88321181 8.25868383 21.359375 8.234375 C23.375 8.5 23.375 8.5 25.109375 9.76953125 C26.90469827 12.22424794 26.91132764 14.58143123 26.78515625 17.5546875 C26.375 19.5 26.375 19.5 24.3125 22.0625 C20.46338451 23.94610971 18.45079849 23.707644 14.375 22.5 C12.20496206 20.69163505 11.49451259 19.39542508 11.12109375 16.59765625 C11.00179442 15.23459798 10.91897507 13.86768222 10.87890625 12.5 C10.12188696 9.49539632 8.83396391 8.35126579 6.375 6.5 C3.1124658 5.8039772 3.1124658 5.8039772 -0.375 5.75 C-2.13070312 5.66492188 -2.13070312 5.66492188 -3.921875 5.578125 C-4.81390625 5.55234375 -5.7059375 5.5265625 -6.625 5.5 C-7.1875 3.5625 -7.1875 3.5625 -7.625 1.5 C-5.70123022 -0.42376978 -2.56890054 0.10816423 0 0 Z " fill="#F1F1F1" transform="translate(60.625,58.5)"/>
<path d="M0 0 C3.51955419 0 5.84920059 0.36891645 8.9375 2.0625 C10.70141999 5.27905997 10.73924763 8.49385409 10 12 C7.9375 14.5625 7.9375 14.5625 5 16 C1.375 16 1.375 16 -2 15 C-2.44577393 14.33194336 -2.89154785 13.66388672 -3.35083008 12.97558594 C-4.86746763 10.74263538 -4.86746763 10.74263538 -7.63549805 10.45410156 C-9.18297729 10.42268066 -9.18297729 10.42268066 -10.76171875 10.390625 C-11.87998047 10.35839844 -12.99824219 10.32617188 -14.15039062 10.29296875 C-15.31763672 10.27878906 -16.48488281 10.26460937 -17.6875 10.25 C-18.86634766 10.22035156 -20.04519531 10.19070312 -21.25976562 10.16015625 C-24.17324632 10.08938344 -27.08592336 10.03672275 -30 10 C-30 8.68 -30 7.36 -30 6 C-29.26885986 5.99589111 -28.53771973 5.99178223 -27.78442383 5.98754883 C-24.45963693 5.95457791 -21.13667384 5.88392853 -17.8125 5.8125 C-16.66201172 5.80669922 -15.51152344 5.80089844 -14.32617188 5.79492188 C-7.57032859 5.76515586 -7.57032859 5.76515586 -1.92578125 2.44921875 C-1.29027344 1.64097656 -0.65476562 0.83273438 0 0 Z " fill="#F5F5F5" transform="translate(84,42)"/>
<path d="M0 0 C2.5 1.625 2.5 1.625 4 4 C4.5625 6.9375 4.5625 6.9375 4 10 C1.51397551 13.36344489 0.08574477 14.80057749 -4.0625 15.5625 C-7 15 -7 15 -9.375 13.5 C-11.80664499 9.75900771 -11.49174842 7.42573582 -11 3 C-8.88563468 -1.22873063 -4.1705953 -0.74684705 0 0 Z " fill="#F2F2F2" transform="translate(63,78)"/>
<path d="M0 0 C2.875 1.5625 2.875 1.5625 5 4 C5.63210717 7.93311127 5.60020266 10.02467068 3.5 13.4375 C-0.27828899 15.79893062 -2.57790439 15.56153595 -7 15 C-9.91781637 12.72045596 -9.97820387 11.17436907 -10.4375 7.5 C-10 4 -10 4 -8.375 1.5625 C-5.26456309 -0.48384007 -3.66322334 -0.59807728 0 0 Z " fill="#F2F2F2" transform="translate(62,7)"/>
<path d="M0 0 C1.67542976 0.28604898 3.34385343 0.61781233 5 1 C5 2.32 5 3.64 5 5 C3.35 5.33 1.7 5.66 0 6 C-0.38218767 4.34385343 -0.71395102 2.67542976 -1 1 C-0.67 0.67 -0.34 0.34 0 0 Z " fill="#171717" transform="translate(85,47)"/>
<path d="M0 0 C2.0625 0.4375 2.0625 0.4375 4 1 C3.67 2.65 3.34 4.3 3 6 C1.35 5.67 -0.3 5.34 -2 5 C-1.125 1.125 -1.125 1.125 0 0 Z " fill="#151515" transform="translate(58,82)"/>
<path d="M0 0 C2.0625 0.4375 2.0625 0.4375 4 1 C4.33 2.32 4.66 3.64 5 5 C3.35 5.33 1.7 5.66 0 6 C-0.38218767 4.34385343 -0.71395102 2.67542976 -1 1 C-0.67 0.67 -0.34 0.34 0 0 Z " fill="#151515" transform="translate(78,71)"/>
<path d="M0 0 C1.67542976 0.28604898 3.34385343 0.61781233 5 1 C4.67 2.32 4.34 3.64 4 5 C2.68 5.33 1.36 5.66 0 6 C-0.38218767 4.34385343 -0.71395102 2.67542976 -1 1 C-0.67 0.67 -0.34 0.34 0 0 Z " fill="#151515" transform="translate(78,23)"/>
<path d="M0 0 C1.67542976 0.28604898 3.34385343 0.61781233 5 1 C4.67 2.65 4.34 4.3 4 6 C2.68 5.67 1.36 5.34 0 5 C-0.5625 3.0625 -0.5625 3.0625 -1 1 C-0.67 0.67 -0.34 0.34 0 0 Z " fill="#151515" transform="translate(57,12)"/>
</svg>
